<svg width="105" height="103" viewBox="0 0 105 103" fill="none" xmlns="http://www.w3.org/2000/svg">
<g clip-path="url(#clip0_1_6)">
<path d="M104.5 102.4V60.127H84.614C84.614 54.256 85.303 48.945 86.682 44.194C88.061 39.444 90.102 34.907 92.807 30.584C95.51 26.26 99.409 22.657 104.5 19.775V0.399994C94.742 4.66999 86.788 10.274 80.636 17.213C74.485 24.152 69.924 31.758 66.955 40.031C63.985 48.304 62.5 60.341 62.5 76.14V102.4H104.5ZM42.5 102.4V60.127H22.614C22.614 54.256 23.303 48.945 24.682 44.194C26.061 39.444 28.102 34.907 30.807 30.584C33.51 26.26 37.409 22.657 42.5 19.775V0.399994C32.848 4.66999 24.92 10.274 18.716 17.213C12.51 24.152 7.924 31.758 4.955 40.031C1.985 48.304 0.5 60.341 0.5 76.14V102.4H42.5Z" fill="#A775F1"/>
</g>
<defs>
<clipPath id="clip0_1_6">
<rect width="104" height="102" fill="white" transform="translate(0.5 0.399994)"/>
</clipPath>
</defs>
</svg>
